<?xml version="1.0" encoding="UTF-8" standalone="no"?>
<svg
   xmlns:dc="http://purl.org/dc/elements/1.1/"
   xmlns:cc="http://creativecommons.org/ns#"
   xmlns:rdf="http://www.w3.org/1999/02/22-rdf-syntax-ns#"
   xmlns:svg="http://www.w3.org/2000/svg"
   xmlns="http://www.w3.org/2000/svg"
   xmlns:sodipodi="http://sodipodi.sourceforge.net/DTD/sodipodi-0.dtd"
   xmlns:inkscape="http://www.inkscape.org/namespaces/inkscape"
   width="24"
   height="24"
   viewBox="-3 0 24 24"
   preserveAspectRatio="xMinYMid meet"
   overflow="visible"
   version="1.1"
   id="svg935"
   sodipodi:docname="icon.svg"
   inkscape:version="1.0.2 (e86c870879, 2021-01-15, custom)">
  <metadata
     id="metadata941">
    <rdf:RDF>
      <cc:Work
         rdf:about="">
        <dc:format>image/svg+xml</dc:format>
        <dc:type
           rdf:resource="http://purl.org/dc/dcmitype/StillImage" />
      </cc:Work>
    </rdf:RDF>
  </metadata>
  <defs
     id="defs939" />
  <sodipodi:namedview
     pagecolor="#ffffff"
     bordercolor="#666666"
     borderopacity="1"
     objecttolerance="10"
     gridtolerance="10"
     guidetolerance="10"
     inkscape:pageopacity="0"
     inkscape:pageshadow="2"
     inkscape:window-width="1920"
     inkscape:window-height="1017"
     id="namedview937"
     showgrid="false"
     inkscape:zoom="12.182861"
     inkscape:cx="30.855684"
     inkscape:cy="-2.6116341"
     inkscape:window-x="1912"
     inkscape:window-y="-8"
     inkscape:window-maximized="1"
     inkscape:current-layer="svg935" />
  <linearGradient
     id="a"
     gradientUnits="userSpaceOnUse"
     x1="9.499"
     x2="9.499"
     y2="24">
    <stop
       offset="0"
       stop-color="#95BFF8"
       id="stop888" />
    <stop
       offset=".557"
       stop-color="#84ADEF"
       id="stop890" />
    <stop
       offset="1"
       stop-color="#7CA4EB"
       id="stop892" />
  </linearGradient>
  <linearGradient
     id="b"
     gradientUnits="userSpaceOnUse"
     x1="9.499"
     y1="1"
     x2="9.499"
     y2="23">
    <stop
       offset="0"
       stop-color="#E7F4FC"
       id="stop897" />
    <stop
       offset="1"
       stop-color="#DEEFFC"
       id="stop899" />
  </linearGradient>
  <linearGradient
     id="c"
     gradientUnits="userSpaceOnUse"
     x1="9.499"
     y1="2"
     x2="9.499"
     y2="22">
    <stop
       offset="0"
       stop-color="#CEE9F9"
       id="stop904" />
    <stop
       offset="1"
       stop-color="#BBDFF8"
       id="stop906" />
  </linearGradient>
  <linearGradient
     id="d"
     gradientUnits="userSpaceOnUse"
     x1="14.245"
     x2="14.245"
     y2="9.359">
    <stop
       offset="0"
       stop-color="#95BFF8"
       id="stop911" />
    <stop
       offset=".557"
       stop-color="#84ADEF"
       id="stop913" />
    <stop
       offset="1"
       stop-color="#7CA4EB"
       id="stop915" />
  </linearGradient>
  <linearGradient
     id="e"
     gradientUnits="userSpaceOnUse"
     x1="11.322"
     y1="7.545"
     x2="14.45"
     y2="4.417">
    <stop
       offset="0"
       stop-color="#E7F4FC"
       id="stop920" />
    <stop
       offset=".518"
       stop-color="#E5F3FC"
       id="stop922" />
    <stop
       offset=".705"
       stop-color="#DEF0FB"
       id="stop924" />
    <stop
       offset=".837"
       stop-color="#D3EBFA"
       id="stop926" />
    <stop
       offset=".872"
       stop-color="#CEE9F9"
       id="stop928" />
    <stop
       offset="1"
       stop-color="#BDD8F0"
       id="stop930" />
  </linearGradient>
  <path
     fill="currentColor"
     d="M 18.158653,5.7887034 V 6.0761338 H 12.096972 V 0.00404823 h 0.286934 c 0.301428,0 0.590544,0.1199733 0.803697,0.3334426 l 4.638179,4.64614057 a 1.1368021,1.1387527 0 0 1 0.332871,0.805072 z M 10.581551,6.4556371 V 0.00404823 H 1.1101737 c -0.62771196,0 -1.13656396,0.5097247 -1.13656396,1.13851797 V 23.153867 c 0,0.628789 0.508852,1.138514 1.13656396,1.138514 H 17.022089 c 0.627716,0 1.136564,-0.509725 1.136564,-1.138514 V 7.5941514 h -6.440534 c -0.625112,0 -1.136568,-0.5123285 -1.136568,-1.1385143 z m 4.546264,6.8318499 v 5.31132 c 0,1.01731 -1.228582,1.517927 -1.940261,0.805071 l -2.606003,-2.609524 v 1.805448 c 0,0.628793 -0.508848,1.138518 -1.1365643,1.138518 h -5.30397 c -0.627717,0 -1.136564,-0.509725 -1.136564,-1.138518 V 13.28673 c 0,-0.628793 0.508847,-1.138514 1.136564,-1.138514 h 5.30397 c 0.6277163,0 1.1365643,0.509721 1.1365643,1.138514 v 1.805449 l 2.606003,-2.609715 c 0.710874,-0.712048 1.940261,-0.213044 1.940261,0.805023 z"
     id="path943"
     style="stroke-width:0.0473974;fill:#d5045c;fill-opacity:1" />
</svg>
